<svg width="700" height="700" viewBox="0 0 700 700" fill="none" xmlns="http://www.w3.org/2000/svg">
<path d="M572.188 249.164C541.81 301.343 504.654 349.268 461.692 391.692C326.05 527.334 166.41 586.913 104.745 525.248C43.0823 463.585 102.866 303.734 238.3 168.3C373.734 32.8671 533.583 -26.9197 595.248 34.7452C628.637 68.1351 626.547 130.322 595.978 201.689" stroke="#EDEDED" stroke-width="20.868" stroke-linecap="round" stroke-linejoin="round"/>
<path d="M150.03 381.78C162.03 326.687 203.033 257.511 264.804 195.324C367.056 93.0723 487.778 48.1007 534.627 94.9504C581.47 141.797 536.916 262.52 435.187 365.191C333.453 467.862 211.691 511.893 164.842 465.147C158.92 459.229 154.331 452.116 151.381 444.28" stroke="#EDEDED" stroke-width="20.868" stroke-linecap="round" stroke-linejoin="round"/>
<path d="M428.721 148.789C443.498 145.574 458.931 149.433 470.455 159.226C499.774 188.546 469.517 266.383 402.842 333.056C336.167 399.732 258.332 429.988 229.012 400.669C199.692 371.349 229.95 293.512 296.624 226.838C319.554 203.507 345.733 183.612 374.358 167.781" stroke="#EDEDED" stroke-width="20.868" stroke-linecap="round" stroke-linejoin="round"/>
<path d="M373.713 256.338C385.936 268.564 385.206 289.111 372.081 302.232C358.96 315.349 338.412 316.072 326.19 303.845C313.967 291.618 314.697 271.071 327.819 257.954C340.944 244.837 361.491 244.111 373.713 256.338" stroke="#EDEDED" stroke-width="20.8683" stroke-linecap="round" stroke-linejoin="round"/>
<path d="M165.923 392.361C175.415 401.857 174.853 417.81 164.665 427.997C154.482 438.184 138.525 438.747 129.032 429.251C119.536 419.759 120.098 403.802 130.286 393.615C140.473 383.432 156.427 382.869 165.922 392.361" stroke="#EDEDED" stroke-width="20.8681" stroke-linecap="round" stroke-linejoin="round"/>
<path d="M603.851 208.383C613.343 217.875 612.785 233.832 602.597 244.016C592.409 254.204 576.452 254.766 566.961 245.27C557.465 235.778 558.027 219.824 568.215 209.637C578.402 199.449 594.355 198.887 603.851 208.383" stroke="#EDEDED" stroke-width="20.8681" stroke-linecap="round" stroke-linejoin="round"/>
<path d="M418.704 139.398C420.458 141.168 421.903 143.211 422.985 145.453C425.243 150.363 425.919 155.859 424.907 161.168C423.896 166.48 421.255 171.347 417.349 175.085C412.782 179.98 406.458 182.867 399.767 183.101C393.076 183.335 386.564 180.902 381.667 176.335C378.827 173.437 376.811 169.835 375.823 165.902C373.608 156.836 376.346 147.277 383.022 140.758C387.577 135.844 393.893 132.942 400.585 132.688C407.276 132.434 413.795 134.848 418.705 139.399L418.704 139.398Z" stroke="#EDEDED" stroke-width="20.868" stroke-linecap="round" stroke-linejoin="round"/>
</svg>
